<?xml version="1.0" encoding="utf-8"?>
<!-- Generator: Adobe Illustrator 16.0.0, SVG Export Plug-In . SVG Version: 6.00 Build 0)  -->
<!DOCTYPE svg PUBLIC "-//W3C//DTD SVG 1.1//EN" "http://www.w3.org/Graphics/SVG/1.1/DTD/svg11.dtd">
<svg version="1.1" xmlns="http://www.w3.org/2000/svg" xmlns:xlink="http://www.w3.org/1999/xlink" x="0px" y="0px" width="75px"
	 height="75px" viewBox="218.5 218.5 75 75" enable-background="new 218.5 218.5 75 75" xml:space="preserve">
<g id="Layer_1" display="none">
	<path display="inline" d="M259.5,238.5h-7v14h-14v7h14v14h7v-14h14v-7h-14V238.5z M256,221c-19.337,0-35,15.663-35,35
		c0,19.338,15.663,35,35,35c19.338,0,35-15.662,35-35C291,236.663,275.338,221,256,221z M256,284c-15.435,0-28-12.564-28-28
		c0-15.435,12.565-28,28-28c15.436,0,28,12.565,28,28C284,271.436,271.436,284,256,284z"/>
</g>
<g id="Layer_2">
	<g>
		<path fill-rule="evenodd" clip-rule="evenodd" fill="#FFFFFF" d="M221.14,291.273c0-23.371,0-46.742,0-70.125
			c23.362,0,46.727,0,70.113,0c0,23.367,0,46.746,0,70.125C267.891,291.273,244.517,291.273,221.14,291.273z M289.656,256.186
			c0.085-18.391-14.884-33.331-33.025-33.58c-18.723-0.257-33.798,14.879-34.026,33.072c-0.235,18.713,14.921,33.813,33.176,33.992
			C274.465,289.854,289.705,274.629,289.656,256.186z"/>
		<path fill-rule="evenodd" clip-rule="evenodd" d="M289.656,256.186c0.05,18.443-15.19,33.667-33.875,33.484
			c-18.254-0.179-33.411-15.278-33.176-33.992c0.228-18.193,15.303-33.329,34.026-33.072
			C274.772,222.855,289.74,237.795,289.656,256.186z M256.125,225.512c-16.854,0.002-30.608,13.752-30.613,30.602
			c-0.004,16.866,13.731,30.638,30.567,30.648c16.906,0.011,30.684-13.731,30.683-30.603
			C286.761,239.261,273.014,225.509,256.125,225.512z"/>
		<path fill-rule="evenodd" clip-rule="evenodd" fill="#FFFFFF" d="M256.125,225.512c16.889-0.002,30.636,13.749,30.637,30.647
			c0.001,16.872-13.776,30.614-30.683,30.603c-16.836-0.011-30.572-13.782-30.567-30.648
			C225.516,239.264,239.27,225.514,256.125,225.512z M257.606,257.637c0.27-0.015,0.427-0.029,0.585-0.029
			c3.484-0.001,6.97,0.002,10.454-0.001c0.295,0,0.597,0.003,0.884-0.052c0.727-0.14,1.216-0.751,1.197-1.451
			c-0.018-0.68-0.496-1.249-1.194-1.385c-0.243-0.048-0.498-0.049-0.747-0.049c-3.439-0.003-6.879-0.002-10.318-0.002
			c-0.265,0-0.53,0-0.86,0c0-0.356,0-0.624,0-0.892c0-3.485-0.003-6.97,0.004-10.455c0.001-0.713-0.182-1.318-0.878-1.634
			c-1.046-0.475-2.058,0.289-2.061,1.565c-0.009,3.531-0.003,7.061-0.003,10.592c0,0.261,0,0.523,0,0.824c-0.385,0-0.656,0-0.928,0
			c-3.439,0-6.879-0.002-10.318,0.004c-0.292,0-0.6,0.011-0.875,0.098c-0.632,0.201-0.955,0.682-0.993,1.332
			c-0.036,0.625,0.387,1.229,0.991,1.402c0.278,0.081,0.583,0.098,0.875,0.098c3.462,0.007,6.925,0.004,10.387,0.004
			c0.265,0,0.53,0,0.86,0c0,0.356,0,0.624,0,0.892c0,3.485-0.003,6.97,0,10.455c0,0.914,0.331,1.46,1,1.687
			c1.033,0.349,1.932-0.384,1.936-1.615c0.01-3.508,0.003-7.016,0.003-10.523C257.606,258.232,257.606,257.964,257.606,257.637z"/>
		<path fill-rule="evenodd" clip-rule="evenodd" d="M257.606,257.637c0,0.327,0,0.596,0,0.863c0,3.508,0.007,7.016-0.003,10.523
			c-0.004,1.231-0.902,1.964-1.936,1.615c-0.669-0.227-1-0.772-1-1.687c-0.002-3.485,0-6.97,0-10.455c0-0.268,0-0.535,0-0.892
			c-0.33,0-0.595,0-0.86,0c-3.462,0-6.924,0.003-10.387-0.004c-0.292,0-0.597-0.017-0.875-0.098
			c-0.604-0.174-1.027-0.777-0.991-1.402c0.038-0.649,0.36-1.131,0.993-1.332c0.275-0.087,0.583-0.098,0.875-0.098
			c3.439-0.006,6.879-0.004,10.318-0.004c0.271,0,0.542,0,0.928,0c0-0.301,0-0.563,0-0.824c0-3.531-0.005-7.061,0.003-10.592
			c0.003-1.277,1.015-2.041,2.061-1.565c0.696,0.316,0.879,0.921,0.878,1.634c-0.007,3.485-0.004,6.97-0.004,10.455
			c0,0.268,0,0.536,0,0.892c0.33,0,0.596,0,0.86,0c3.439,0,6.879-0.001,10.318,0.002c0.249,0,0.504,0.001,0.747,0.049
			c0.698,0.137,1.177,0.706,1.194,1.385c0.019,0.7-0.471,1.311-1.197,1.451c-0.287,0.055-0.589,0.052-0.884,0.052
			c-3.484,0.003-6.97,0-10.454,0.001C258.032,257.607,257.875,257.622,257.606,257.637z"/>
	</g>
</g>
</svg>
