<?xml version="1.0" encoding="utf-8"?>
<!-- Generator: Adobe Illustrator 16.0.0, SVG Export Plug-In . SVG Version: 6.00 Build 0)  -->
<!DOCTYPE svg PUBLIC "-//W3C//DTD SVG 1.1//EN" "http://www.w3.org/Graphics/SVG/1.1/DTD/svg11.dtd">
<svg version="1.1" id="Layer_1" xmlns="http://www.w3.org/2000/svg" xmlns:xlink="http://www.w3.org/1999/xlink" x="0px" y="0px"
	 width="45px" height="45px" viewBox="0 0 45 45" enable-background="new 0 0 45 45" xml:space="preserve">
<g>
	<path fill-rule="evenodd" clip-rule="evenodd" d="M22.493,28.557c5.324,0,10.646-0.001,15.971,0.004
		c0.218,0,0.441,0.014,0.655,0.055c0.683,0.136,0.925,0.577,0.645,1.209c-0.121,0.274-0.308,0.521-0.475,0.773
		c-1.181,1.775-2.353,3.558-3.551,5.321c-0.763,1.127-1.863,1.707-3.212,1.71c-6.676,0.015-13.351,0.016-20.026,0
		c-1.38-0.003-2.49-0.595-3.267-1.761c-1.229-1.844-2.461-3.686-3.687-5.53c-0.257-0.386-0.589-0.778-0.332-1.282
		c0.267-0.517,0.784-0.495,1.267-0.495C11.819,28.556,17.156,28.557,22.493,28.557z"/>
	<path fill-rule="evenodd" clip-rule="evenodd" d="M19.526,27.015c0-6.526,0-13.026,0-19.654
		c6.579,5.199,10.847,11.855,13.565,19.654C28.544,27.015,24.062,27.015,19.526,27.015z"/>
	<path fill-rule="evenodd" clip-rule="evenodd" d="M17.929,16.52c0,3.512,0,6.996,0,10.5c-2.001,0-3.98,0-5.958,0
		C11.258,23.891,14.696,17.814,17.929,16.52z"/>
</g>
</svg>
