<?xml version="1.0" encoding="utf-8"?>
<!-- Generator: Adobe Illustrator 16.0.0, SVG Export Plug-In . SVG Version: 6.00 Build 0)  -->
<!DOCTYPE svg PUBLIC "-//W3C//DTD SVG 1.1//EN" "http://www.w3.org/Graphics/SVG/1.1/DTD/svg11.dtd">
<svg version="1.1" xmlns="http://www.w3.org/2000/svg" xmlns:xlink="http://www.w3.org/1999/xlink" x="0px" y="0px"
	 width="35.205px" height="35.204px" viewBox="0 0 35.205 35.204" enable-background="new 0 0 35.205 35.204" xml:space="preserve">
<g id="Layer_1" display="none">
	<g display="inline">
		<path fill-rule="evenodd" clip-rule="evenodd" fill="#FFFFFF" d="M6.518,28.776c0-7.417,0-14.834,0-22.256
			c7.413,0,14.827,0,22.25,0c0,7.415,0,14.835,0,22.256C21.358,28.776,13.939,28.776,6.518,28.776z M27.605,27.345
			c0.008,0.002,0.016,0.004,0.023,0.006c0.015-0.039,0.032-0.077,0.043-0.117c0.388-1.404,0.693-2.823,0.809-4.28
			c0.1-1.271,0.069-2.531-0.229-3.776c-0.529-2.207-1.811-3.832-3.804-4.901c-1.688-0.905-3.52-1.307-5.404-1.489
			c-0.943-0.091-1.894-0.104-2.84-0.154c-0.374-0.02-0.329,0.026-0.329-0.331c-0.002-1.109,0-2.217-0.002-3.326
			c0-0.123,0.002-0.25-0.031-0.366c-0.124-0.428-0.635-0.593-1.002-0.313c-0.69,0.528-1.371,1.069-2.054,1.606
			c-1.96,1.539-3.918,3.079-5.88,4.616c-0.204,0.16-0.317,0.354-0.295,0.615c0.018,0.217,0.139,0.37,0.307,0.501
			c1.765,1.376,3.527,2.756,5.291,4.135c0.861,0.674,1.722,1.348,2.584,2.021c0.389,0.304,0.903,0.173,1.043-0.271
			c0.038-0.121,0.037-0.257,0.037-0.387c0.003-1.101,0.001-2.202,0.002-3.303c0-0.084,0.009-0.168,0.015-0.263
			c0.111,0,0.198-0.004,0.284,0c1.163,0.069,2.329,0.11,3.489,0.215c1.28,0.117,2.528,0.402,3.718,0.907
			c1.513,0.643,2.7,1.642,3.419,3.148c0.522,1.096,0.747,2.265,0.802,3.466C27.629,25.983,27.605,26.665,27.605,27.345z"/>
		<path fill-rule="evenodd" clip-rule="evenodd" d="M27.605,27.345c0-0.68,0.024-1.361-0.006-2.04
			c-0.055-1.201-0.279-2.37-0.802-3.466c-0.719-1.507-1.906-2.506-3.419-3.148c-1.189-0.505-2.438-0.791-3.718-0.907
			c-1.16-0.105-2.326-0.146-3.489-0.215c-0.086-0.005-0.172,0-0.284,0c-0.005,0.095-0.015,0.179-0.015,0.263
			c-0.001,1.101,0,2.203-0.002,3.303c0,0.13,0.001,0.266-0.037,0.387c-0.14,0.444-0.654,0.575-1.043,0.271
			c-0.862-0.674-1.723-1.348-2.584-2.021c-1.763-1.379-3.526-2.758-5.291-4.135c-0.168-0.131-0.289-0.284-0.307-0.501
			C6.587,14.874,6.7,14.679,6.904,14.52c1.961-1.537,3.92-3.077,5.88-4.616c0.684-0.537,1.364-1.078,2.054-1.606
			c0.367-0.28,0.878-0.116,1.002,0.313c0.033,0.115,0.031,0.243,0.031,0.366c0.002,1.108,0,2.217,0.002,3.326
			c0,0.357-0.044,0.312,0.329,0.331c0.947,0.049,1.897,0.063,2.84,0.154c1.885,0.183,3.717,0.584,5.404,1.489
			c1.993,1.069,3.274,2.694,3.804,4.901c0.299,1.245,0.329,2.506,0.229,3.776c-0.115,1.457-0.421,2.876-0.809,4.28
			c-0.011,0.04-0.028,0.078-0.043,0.117C27.621,27.349,27.613,27.347,27.605,27.345z"/>
	</g>
</g>
<g id="Layer_2" display="none">
</g>
<g id="Layer_3" display="none">
	<g display="inline">
		<path fill-rule="evenodd" clip-rule="evenodd" fill="#999999" d="M17.671,26.07c-4.646-0.012-8.395-3.79-8.375-8.439
			c0.021-4.594,3.797-8.343,8.396-8.335c4.633,0.008,8.398,3.801,8.375,8.439C26.046,22.334,22.271,26.082,17.671,26.07z
			 M17.729,19.3c0.812,0.816,1.628,1.64,2.422,2.439c0.541-0.536,1.059-1.049,1.61-1.596c-0.811-0.804-1.633-1.621-2.495-2.477
			c0.849-0.845,1.67-1.663,2.47-2.459c-0.534-0.534-1.05-1.049-1.597-1.595c-0.8,0.802-1.618,1.624-2.474,2.483
			c-0.843-0.845-1.662-1.665-2.457-2.462c-0.535,0.53-1.052,1.042-1.598,1.583c0.809,0.804,1.631,1.621,2.491,2.475
			c-0.855,0.846-1.679,1.662-2.441,2.416c0.547,0.547,1.068,1.068,1.633,1.633C16.067,20.965,16.879,20.151,17.729,19.3z"/>
	</g>
</g>
<g id="Layer_4">
	<path d="M1.646,13.806h2.939l8.938,0.062l3-8.449l0.918-2.816L18.36,5.48l2.755,8.51l8.938,0.184l2.939,0.062l-2.389,1.714
		l-7.285,5.205l2.571,8.57l0.857,2.879l-2.388-1.775l-7.225-5.266L9.85,30.644L7.4,32.296l0.918-2.816l2.816-8.449l-7.102-5.449
		L1.646,13.806z M7.584,15.827l5.265,4.042l0.612,0.428l-0.245,0.674l-2.082,6.367l5.51-3.857l0.551-0.367l0.551,0.428l5.388,3.92
		l-1.897-6.367l-0.185-0.674l0.551-0.43l5.449-3.918l-6.734-0.122l-0.674-0.062l-0.244-0.673L17.38,8.908l-2.204,6.245l-0.245,0.674
		H7.584L7.584,15.827z"/>
</g>
</svg>
